<?xml version="1.0" encoding="iso-8859-1"?>
<!-- Generator: Adobe Illustrator 22.1.0, SVG Export Plug-In . SVG Version: 6.00 Build 0)  -->
<svg version="1.1" id="Layer_1" xmlns="http://www.w3.org/2000/svg" xmlns:xlink="http://www.w3.org/1999/xlink" x="0px" y="0px"
	 viewBox="0 0 64 64" style="enable-background:new 0 0 64 64;" xml:space="preserve">
<linearGradient id="SVGID_1_" gradientUnits="userSpaceOnUse" x1="36.5" y1="40" x2="36.5" y2="9.6539" gradientTransform="matrix(1 0 0 -1 0 66)">
	<stop  offset="0" style="stop-color:#6DC7FF"/>
	<stop  offset="1" style="stop-color:#E6ABFF"/>
</linearGradient>
<path style="fill:url(#SVGID_1_);" d="M52.25,44c-0.154,0-0.365,0.084-0.492,0.15c-0.331,0.173-0.345,0.241-1.073,0.548
	C49.394,45.244,46.898,46,42.984,46c-6.93,0-11.859-2.922-14.734-6.625C26.055,36.548,26,33.625,26,32c0-3.314,2.686-6,6-6
	c-2.125,0-3.873,0.378-5.75,1.75C23,30.125,20,34.521,20,40.532c0,10.09,8.703,17.391,18.522,15.521
	c6.384-1.843,11.874-6.157,14.399-10.968c0,0,0.079-0.145,0.079-0.335C53,44.336,52.664,44,52.25,44z"/>
<linearGradient id="SVGID_2_" gradientUnits="userSpaceOnUse" x1="32.0125" y1="59" x2="32.0125" y2="26" gradientTransform="matrix(1 0 0 -1 0 66)">
	<stop  offset="0" style="stop-color:#6DC7FF"/>
	<stop  offset="1" style="stop-color:#E6ABFF"/>
</linearGradient>
<path style="fill:url(#SVGID_2_);" d="M32.479,7C18.372,7,7.543,17.657,7.025,31h0.109c0.66-5.379,4.328-12,15.366-12
	c7.75,0,12.25,3.75,14.125,7.125C38.168,28.903,38,32,38,32c0,2.859-2,5-2,5s0.328,3,8,3c8,0,13-5,13-12C57,16,46.286,7,32.479,7z"
	/>
<linearGradient id="SVGID_3_" gradientUnits="userSpaceOnUse" x1="32" y1="6.9431" x2="32" y2="58.4678" gradientTransform="matrix(1 0 0 -1 0 66)">
	<stop  offset="0" style="stop-color:#C822FF"/>
	<stop  offset="1" style="stop-color:#1A6DFF"/>
</linearGradient>
<path style="fill:url(#SVGID_3_);" d="M35.006,37.108C35.072,37.421,35.672,41,44,41c8.374,0,14-5.225,14-13
	C58,15.458,47.028,6,32.479,6C17.631,6,6,17.421,6,32c0,14.337,11.663,26,26,26c8.849,0,18.02-5.236,21.798-12.435
	C53.846,45.479,54,45.164,54,44.75c0-0.965-0.785-1.75-1.75-1.75c-0.391,0-0.766,0.166-0.954,0.264
	c-0.124,0.065-0.212,0.118-0.3,0.171c-0.137,0.082-0.275,0.163-0.7,0.343C49.216,44.233,46.828,45,42.984,45
	c-7.919,0-12.136-3.908-13.944-6.238C27,36.135,27,33.445,27,32c0-2.757,2.243-5,5-5s5,2.243,5,5c0,2.412-1.716,4.301-1.73,4.317
	C35.07,36.53,34.945,36.824,35.006,37.108z M32.479,8C45.889,8,56,16.598,56,28c0,6.683-4.71,11-12,11
	c-4.941,0-6.426-1.259-6.848-1.831c0.652-0.869,1.826-2.762,1.844-5.115h0.001c0.008-0.138,0.165-3.418-1.499-6.414
	C36.504,23.848,32.479,18,22.5,18c-5.984,0-10.059,1.939-12.664,4.721C13.468,13.999,22.126,8,32.479,8z M27.46,39.988
	C29.493,42.606,34.214,47,42.984,47c3.986,0,6.6-0.751,8.091-1.381c0.229-0.097,0.399-0.175,0.535-0.241
	c-2.484,4.149-7.091,7.559-12.205,9.322c-4.533,1.191-9.154,0.432-12.716-2.309C23.074,49.608,21,45.286,21,40.532
	c0-4.118,1.601-7.972,4.339-10.677C25.121,30.532,25,31.252,25,32C25,33.564,25,36.82,27.46,39.988z M25.66,26.942
	C21.489,29.99,19,35.07,19,40.532c0,5.38,2.358,10.279,6.47,13.443c0.895,0.688,1.854,1.262,2.852,1.742
	C16.828,53.942,8,43.983,8,32c0-1.922,0.779-3.76,0.953-4.2c1.45-3.657,4.988-7.8,13.547-7.8c7.68,0,11.334,3.775,12.742,5.802
	C34.271,25.292,33.17,25,32,25C29.419,25,27.522,25.581,25.66,26.942z"/>
</svg>